<mxfile host="app.diagrams.net" agent="Mozilla/5.0 (Macintosh; Intel Mac OS X 10_15_7) AppleWebKit/537.36 (KHTML, like Gecko) Chrome/128.0.0.0 Safari/537.36" version="24.7.16">
  <diagram id="C5RBs43oDa-KdzZeNtuy" name="Page-1">
    <mxGraphModel dx="2133" dy="826" grid="1" gridSize="13" guides="1" tooltips="1" connect="1" arrows="1" fold="1" page="1" pageScale="1" pageWidth="827" pageHeight="1169" math="0" shadow="0">
      <root>
        <mxCell id="WIyWlLk6GJQsqaUBKTNV-0" />
        <mxCell id="WIyWlLk6GJQsqaUBKTNV-1" parent="WIyWlLk6GJQsqaUBKTNV-0" />
        <mxCell id="sO9mef_OLbLLb9RiKh2o-40" value="" style="group" parent="WIyWlLk6GJQsqaUBKTNV-1" vertex="1" connectable="0">
          <mxGeometry x="245" y="52" width="338" height="130" as="geometry" />
        </mxCell>
        <mxCell id="WIyWlLk6GJQsqaUBKTNV-3" value="" style="rounded=1;whiteSpace=wrap;html=1;fontSize=12;glass=0;strokeWidth=1;shadow=0;" parent="sO9mef_OLbLLb9RiKh2o-40" vertex="1">
          <mxGeometry x="-16.73" width="338" height="130" as="geometry" />
        </mxCell>
        <mxCell id="sO9mef_OLbLLb9RiKh2o-0" value="healing_service" style="rounded=1;whiteSpace=wrap;html=1;fontSize=15;" parent="sO9mef_OLbLLb9RiKh2o-40" vertex="1">
          <mxGeometry x="0.0017647058823531125" y="51.11111111111111" width="136.69117647058823" height="27.777777777777775" as="geometry" />
        </mxCell>
        <mxCell id="sO9mef_OLbLLb9RiKh2o-1" value="action_manager" style="rounded=1;whiteSpace=wrap;html=1;fontSize=15;" parent="sO9mef_OLbLLb9RiKh2o-40" vertex="1">
          <mxGeometry x="169.00029411764706" y="51.11111111111111" width="136.69117647058823" height="27.777777777777775" as="geometry" />
        </mxCell>
        <mxCell id="sO9mef_OLbLLb9RiKh2o-3" value="HealingService" style="text;html=1;resizable=0;autosize=1;align=center;verticalAlign=middle;points=[];fillColor=none;strokeColor=none;rounded=0;fontSize=17;fontStyle=1" parent="sO9mef_OLbLLb9RiKh2o-40" vertex="1">
          <mxGeometry x="80.77205882352942" y="7.222222222222222" width="143" height="26" as="geometry" />
        </mxCell>
        <mxCell id="sO9mef_OLbLLb9RiKh2o-72" style="edgeStyle=orthogonalEdgeStyle;rounded=1;jumpStyle=arc;orthogonalLoop=1;jettySize=auto;html=1;entryX=0.5;entryY=1;entryDx=0;entryDy=0;startSize=10;endSize=10;strokeColor=#FF9933;strokeWidth=3;fontSize=15;fontColor=#000000;" parent="WIyWlLk6GJQsqaUBKTNV-1" source="sO9mef_OLbLLb9RiKh2o-68" target="sO9mef_OLbLLb9RiKh2o-1" edge="1">
          <mxGeometry relative="1" as="geometry" />
        </mxCell>
        <mxCell id="sO9mef_OLbLLb9RiKh2o-68" value="" style="shape=ext;double=1;rounded=1;whiteSpace=wrap;html=1;strokeColor=#969696;fontSize=15;fontColor=#000000;dashed=1;" parent="WIyWlLk6GJQsqaUBKTNV-1" vertex="1">
          <mxGeometry x="618" y="110" width="123" height="111" as="geometry" />
        </mxCell>
        <mxCell id="sO9mef_OLbLLb9RiKh2o-59" style="edgeStyle=orthogonalEdgeStyle;rounded=1;jumpStyle=arc;orthogonalLoop=1;jettySize=auto;html=1;startSize=10;endSize=10;strokeColor=#FF9933;strokeWidth=3;fontSize=15;fontColor=#969696;startArrow=classic;startFill=1;exitX=0.317;exitY=0.007;exitDx=0;exitDy=0;exitPerimeter=0;" parent="WIyWlLk6GJQsqaUBKTNV-1" source="sO9mef_OLbLLb9RiKh2o-8" target="sO9mef_OLbLLb9RiKh2o-0" edge="1">
          <mxGeometry relative="1" as="geometry" />
        </mxCell>
        <mxCell id="sO9mef_OLbLLb9RiKh2o-75" style="edgeStyle=orthogonalEdgeStyle;rounded=1;jumpStyle=arc;orthogonalLoop=1;jettySize=auto;html=1;entryX=1.015;entryY=0.604;entryDx=0;entryDy=0;entryPerimeter=0;startSize=10;endSize=10;strokeColor=#FF9933;strokeWidth=3;fontSize=15;fontColor=#000000;exitX=0;exitY=1;exitDx=0;exitDy=0;" parent="WIyWlLk6GJQsqaUBKTNV-1" source="sO9mef_OLbLLb9RiKh2o-8" target="sO9mef_OLbLLb9RiKh2o-4" edge="1">
          <mxGeometry relative="1" as="geometry" />
        </mxCell>
        <mxCell id="sO9mef_OLbLLb9RiKh2o-8" value="TjMaster" style="ellipse;whiteSpace=wrap;html=1;aspect=fixed;fontSize=15;fontStyle=1" parent="WIyWlLk6GJQsqaUBKTNV-1" vertex="1">
          <mxGeometry x="352" y="507" width="142" height="142" as="geometry" />
        </mxCell>
        <mxCell id="sO9mef_OLbLLb9RiKh2o-37" value="" style="group" parent="WIyWlLk6GJQsqaUBKTNV-1" vertex="1" connectable="0">
          <mxGeometry x="-12" y="293" width="299" height="169" as="geometry" />
        </mxCell>
        <mxCell id="sO9mef_OLbLLb9RiKh2o-15" value="" style="rounded=1;whiteSpace=wrap;html=1;fontSize=12;glass=0;strokeWidth=1;shadow=0;" parent="sO9mef_OLbLLb9RiKh2o-37" vertex="1">
          <mxGeometry width="299" height="169" as="geometry" />
        </mxCell>
        <mxCell id="sO9mef_OLbLLb9RiKh2o-16" value="MachineMonitor" style="text;html=1;resizable=0;autosize=1;align=center;verticalAlign=middle;points=[];fillColor=none;strokeColor=none;rounded=0;fontSize=17;fontStyle=1" parent="sO9mef_OLbLLb9RiKh2o-37" vertex="1">
          <mxGeometry x="63.44095940959409" y="16.900000000000002" width="156" height="26" as="geometry" />
        </mxCell>
        <mxCell id="sO9mef_OLbLLb9RiKh2o-17" value="idc_monitor" style="rounded=1;whiteSpace=wrap;html=1;fontSize=15;" parent="sO9mef_OLbLLb9RiKh2o-37" vertex="1">
          <mxGeometry x="13.24" y="52" width="99.3" height="52" as="geometry" />
        </mxCell>
        <mxCell id="sO9mef_OLbLLb9RiKh2o-20" value="tj_host_env_monitor" style="rounded=1;whiteSpace=wrap;html=1;fontSize=15;" parent="sO9mef_OLbLLb9RiKh2o-37" vertex="1">
          <mxGeometry x="78.00000000000001" y="117" width="157.77" height="45.5" as="geometry" />
        </mxCell>
        <mxCell id="zvxovWymFCu1q2faMxAx-0" value="ping_monitor" style="rounded=1;whiteSpace=wrap;html=1;fontSize=15;" vertex="1" parent="sO9mef_OLbLLb9RiKh2o-37">
          <mxGeometry x="169" y="52" width="99.3" height="52" as="geometry" />
        </mxCell>
        <mxCell id="sO9mef_OLbLLb9RiKh2o-41" value="" style="group" parent="WIyWlLk6GJQsqaUBKTNV-1" vertex="1" connectable="0">
          <mxGeometry x="15" y="572" width="272" height="260" as="geometry" />
        </mxCell>
        <mxCell id="sO9mef_OLbLLb9RiKh2o-4" value="" style="rounded=1;whiteSpace=wrap;html=1;fontSize=12;glass=0;strokeWidth=1;shadow=0;" parent="sO9mef_OLbLLb9RiKh2o-41" vertex="1">
          <mxGeometry width="272" height="260" as="geometry" />
        </mxCell>
        <mxCell id="sO9mef_OLbLLb9RiKh2o-5" value="Labors" style="text;html=1;resizable=0;autosize=1;align=center;verticalAlign=middle;points=[];fillColor=none;strokeColor=none;rounded=0;fontSize=17;fontStyle=1" parent="sO9mef_OLbLLb9RiKh2o-41" vertex="1">
          <mxGeometry x="98" y="7" width="78" height="39" as="geometry" />
        </mxCell>
        <mxCell id="sO9mef_OLbLLb9RiKh2o-6" value="rma_labor" style="rounded=1;whiteSpace=wrap;html=1;fontSize=15;" parent="sO9mef_OLbLLb9RiKh2o-41" vertex="1">
          <mxGeometry x="13" y="52" width="110" height="50" as="geometry" />
        </mxCell>
        <mxCell id="sO9mef_OLbLLb9RiKh2o-9" value="clone_service" style="rounded=1;whiteSpace=wrap;html=1;fontSize=15;" parent="sO9mef_OLbLLb9RiKh2o-41" vertex="1">
          <mxGeometry x="143" y="52" width="110" height="50" as="geometry" />
        </mxCell>
        <mxCell id="sO9mef_OLbLLb9RiKh2o-10" value="oob_rebo0t" style="rounded=1;whiteSpace=wrap;html=1;fontSize=15;" parent="sO9mef_OLbLLb9RiKh2o-41" vertex="1">
          <mxGeometry x="13" y="117" width="110" height="50" as="geometry" />
        </mxCell>
        <mxCell id="sO9mef_OLbLLb9RiKh2o-11" value="formater" style="rounded=1;whiteSpace=wrap;html=1;fontSize=15;" parent="sO9mef_OLbLLb9RiKh2o-41" vertex="1">
          <mxGeometry x="143" y="117" width="110" height="50" as="geometry" />
        </mxCell>
        <mxCell id="sO9mef_OLbLLb9RiKh2o-13" value="......" style="rounded=1;whiteSpace=wrap;html=1;fontSize=15;" parent="sO9mef_OLbLLb9RiKh2o-41" vertex="1">
          <mxGeometry x="143" y="182" width="110" height="50" as="geometry" />
        </mxCell>
        <mxCell id="sO9mef_OLbLLb9RiKh2o-14" value="tjhost_env_labor" style="rounded=1;whiteSpace=wrap;html=1;fontSize=15;" parent="sO9mef_OLbLLb9RiKh2o-41" vertex="1">
          <mxGeometry x="13" y="182" width="110" height="50" as="geometry" />
        </mxCell>
        <mxCell id="sO9mef_OLbLLb9RiKh2o-44" value="" style="group" parent="WIyWlLk6GJQsqaUBKTNV-1" vertex="1" connectable="0">
          <mxGeometry x="598" y="273" width="169" height="585" as="geometry" />
        </mxCell>
        <mxCell id="sO9mef_OLbLLb9RiKh2o-7" value="" style="rounded=1;whiteSpace=wrap;html=1;fontSize=15;" parent="sO9mef_OLbLLb9RiKh2o-44" vertex="1">
          <mxGeometry width="169" height="585" as="geometry" />
        </mxCell>
        <mxCell id="sO9mef_OLbLLb9RiKh2o-21" value="" style="rounded=1;whiteSpace=wrap;html=1;fontSize=15;" parent="sO9mef_OLbLLb9RiKh2o-44" vertex="1">
          <mxGeometry x="13" y="58.5" width="143" height="130" as="geometry" />
        </mxCell>
        <mxCell id="sO9mef_OLbLLb9RiKh2o-22" value="Cluster" style="text;html=1;resizable=0;autosize=1;align=center;verticalAlign=middle;points=[];fillColor=none;strokeColor=none;rounded=0;fontSize=17;fontStyle=1" parent="sO9mef_OLbLLb9RiKh2o-44" vertex="1">
          <mxGeometry x="43.00999999999999" y="22.5" width="78" height="26" as="geometry" />
        </mxCell>
        <mxCell id="sO9mef_OLbLLb9RiKh2o-23" value="machineA" style="text;html=1;resizable=0;autosize=1;align=center;verticalAlign=middle;points=[];fillColor=none;strokeColor=none;rounded=0;fontSize=17;fontStyle=1" parent="sO9mef_OLbLLb9RiKh2o-44" vertex="1">
          <mxGeometry x="32.5" y="58.5" width="104" height="26" as="geometry" />
        </mxCell>
        <mxCell id="sO9mef_OLbLLb9RiKh2o-24" value="" style="rounded=1;whiteSpace=wrap;html=1;fontSize=15;" parent="sO9mef_OLbLLb9RiKh2o-44" vertex="1">
          <mxGeometry x="13.009999999999991" y="416" width="143" height="130" as="geometry" />
        </mxCell>
        <mxCell id="sO9mef_OLbLLb9RiKh2o-25" value="machineX" style="text;html=1;resizable=0;autosize=1;align=center;verticalAlign=middle;points=[];fillColor=none;strokeColor=none;rounded=0;fontSize=17;fontStyle=1" parent="sO9mef_OLbLLb9RiKh2o-44" vertex="1">
          <mxGeometry x="30.00999999999999" y="416" width="104" height="26" as="geometry" />
        </mxCell>
        <mxCell id="sO9mef_OLbLLb9RiKh2o-26" value="" style="rounded=1;whiteSpace=wrap;html=1;fontSize=15;" parent="sO9mef_OLbLLb9RiKh2o-44" vertex="1">
          <mxGeometry x="13.009999999999991" y="208" width="143" height="130" as="geometry" />
        </mxCell>
        <mxCell id="sO9mef_OLbLLb9RiKh2o-27" value="machineB" style="text;html=1;resizable=0;autosize=1;align=center;verticalAlign=middle;points=[];fillColor=none;strokeColor=none;rounded=0;fontSize=17;fontStyle=1" parent="sO9mef_OLbLLb9RiKh2o-44" vertex="1">
          <mxGeometry x="32.50999999999999" y="208" width="104" height="26" as="geometry" />
        </mxCell>
        <mxCell id="sO9mef_OLbLLb9RiKh2o-29" value="......" style="text;html=1;resizable=0;autosize=1;align=center;verticalAlign=middle;points=[];fillColor=none;strokeColor=none;rounded=0;fontSize=22;fontStyle=1" parent="sO9mef_OLbLLb9RiKh2o-44" vertex="1">
          <mxGeometry x="58.5" y="351" width="52" height="39" as="geometry" />
        </mxCell>
        <mxCell id="sO9mef_OLbLLb9RiKh2o-30" value="local_labor" style="rounded=1;whiteSpace=wrap;html=1;fontSize=15;" parent="sO9mef_OLbLLb9RiKh2o-44" vertex="1">
          <mxGeometry x="22.75" y="88.5" width="123.5" height="37" as="geometry" />
        </mxCell>
        <mxCell id="sO9mef_OLbLLb9RiKh2o-31" value="local_labor" style="rounded=1;whiteSpace=wrap;html=1;fontSize=15;" parent="sO9mef_OLbLLb9RiKh2o-44" vertex="1">
          <mxGeometry x="22.75999999999999" y="238" width="123.5" height="37" as="geometry" />
        </mxCell>
        <mxCell id="sO9mef_OLbLLb9RiKh2o-32" value="local_labor" style="rounded=1;whiteSpace=wrap;html=1;fontSize=15;" parent="sO9mef_OLbLLb9RiKh2o-44" vertex="1">
          <mxGeometry x="22.75999999999999" y="446" width="123.5" height="37" as="geometry" />
        </mxCell>
        <mxCell id="sO9mef_OLbLLb9RiKh2o-33" value="machine_inspector" style="rounded=1;whiteSpace=wrap;html=1;fontSize=15;" parent="sO9mef_OLbLLb9RiKh2o-44" vertex="1">
          <mxGeometry x="17.879999999999995" y="136.5" width="133.25" height="37" as="geometry" />
        </mxCell>
        <mxCell id="sO9mef_OLbLLb9RiKh2o-35" value="machine_inspector" style="rounded=1;whiteSpace=wrap;html=1;fontSize=15;" parent="sO9mef_OLbLLb9RiKh2o-44" vertex="1">
          <mxGeometry x="17.889999999999986" y="288" width="133.25" height="37" as="geometry" />
        </mxCell>
        <mxCell id="sO9mef_OLbLLb9RiKh2o-36" value="machine_inspector" style="rounded=1;whiteSpace=wrap;html=1;fontSize=15;" parent="sO9mef_OLbLLb9RiKh2o-44" vertex="1">
          <mxGeometry x="17.879999999999995" y="496.5" width="133.25" height="37" as="geometry" />
        </mxCell>
        <mxCell id="sO9mef_OLbLLb9RiKh2o-45" style="edgeStyle=orthogonalEdgeStyle;rounded=1;orthogonalLoop=1;jettySize=auto;html=1;fontSize=22;strokeColor=#FF8000;startSize=10;endSize=10;jumpStyle=arc;strokeWidth=3;entryX=0;entryY=0.5;entryDx=0;entryDy=0;" parent="WIyWlLk6GJQsqaUBKTNV-1" source="sO9mef_OLbLLb9RiKh2o-15" target="sO9mef_OLbLLb9RiKh2o-8" edge="1">
          <mxGeometry relative="1" as="geometry" />
        </mxCell>
        <mxCell id="sO9mef_OLbLLb9RiKh2o-46" style="edgeStyle=orthogonalEdgeStyle;rounded=1;orthogonalLoop=1;jettySize=auto;html=1;entryX=1;entryY=0.5;entryDx=0;entryDy=0;fontSize=22;strokeColor=#FF8000;startSize=10;endSize=10;strokeWidth=3;" parent="WIyWlLk6GJQsqaUBKTNV-1" target="sO9mef_OLbLLb9RiKh2o-8" edge="1">
          <mxGeometry relative="1" as="geometry">
            <mxPoint x="611" y="780" as="sourcePoint" />
          </mxGeometry>
        </mxCell>
        <mxCell id="sO9mef_OLbLLb9RiKh2o-47" style="edgeStyle=orthogonalEdgeStyle;rounded=1;orthogonalLoop=1;jettySize=auto;html=1;exitX=0;exitY=0.75;exitDx=0;exitDy=0;entryX=1;entryY=0.5;entryDx=0;entryDy=0;fontSize=22;strokeColor=#FF8000;startSize=10;endSize=10;strokeWidth=3;" parent="WIyWlLk6GJQsqaUBKTNV-1" source="sO9mef_OLbLLb9RiKh2o-26" target="sO9mef_OLbLLb9RiKh2o-8" edge="1">
          <mxGeometry relative="1" as="geometry" />
        </mxCell>
        <mxCell id="sO9mef_OLbLLb9RiKh2o-49" style="edgeStyle=orthogonalEdgeStyle;rounded=1;orthogonalLoop=1;jettySize=auto;html=1;entryX=1;entryY=0.5;entryDx=0;entryDy=0;fontSize=22;strokeColor=#FF8000;startSize=10;endSize=10;strokeWidth=3;exitX=0;exitY=0.5;exitDx=0;exitDy=0;" parent="WIyWlLk6GJQsqaUBKTNV-1" source="sO9mef_OLbLLb9RiKh2o-21" target="sO9mef_OLbLLb9RiKh2o-8" edge="1">
          <mxGeometry relative="1" as="geometry" />
        </mxCell>
        <mxCell id="sO9mef_OLbLLb9RiKh2o-50" value="Monitor" style="text;html=1;resizable=0;autosize=1;align=center;verticalAlign=middle;points=[];fillColor=none;strokeColor=none;rounded=0;fontSize=15;fontColor=#969696;rotation=90;" parent="WIyWlLk6GJQsqaUBKTNV-1" vertex="1">
          <mxGeometry x="312" y="462" width="65" height="26" as="geometry" />
        </mxCell>
        <mxCell id="sO9mef_OLbLLb9RiKh2o-51" value="Monitor" style="text;html=1;resizable=0;autosize=1;align=center;verticalAlign=middle;points=[];fillColor=none;strokeColor=none;rounded=0;fontSize=15;fontColor=#969696;rotation=90;" parent="WIyWlLk6GJQsqaUBKTNV-1" vertex="1">
          <mxGeometry x="497.5" y="490.5" width="65" height="26" as="geometry" />
        </mxCell>
        <mxCell id="sO9mef_OLbLLb9RiKh2o-52" value="Monitor" style="text;html=1;resizable=0;autosize=1;align=center;verticalAlign=middle;points=[];fillColor=none;strokeColor=none;rounded=0;fontSize=15;fontColor=#969696;rotation=90;" parent="WIyWlLk6GJQsqaUBKTNV-1" vertex="1">
          <mxGeometry x="497.5" y="659.5" width="65" height="26" as="geometry" />
        </mxCell>
        <mxCell id="sO9mef_OLbLLb9RiKh2o-54" value="1" style="ellipse;shape=doubleEllipse;whiteSpace=wrap;html=1;aspect=fixed;fontSize=15;strokeColor=#FF8000;fillColor=#525252;fontColor=#FFFFFF;" parent="WIyWlLk6GJQsqaUBKTNV-1" vertex="1">
          <mxGeometry x="514.5" y="444.5" width="28.5" height="28.5" as="geometry" />
        </mxCell>
        <mxCell id="sO9mef_OLbLLb9RiKh2o-57" value="1" style="ellipse;shape=doubleEllipse;whiteSpace=wrap;html=1;aspect=fixed;fontSize=15;strokeColor=#FF8000;fillColor=#525252;fontColor=#FFFFFF;" parent="WIyWlLk6GJQsqaUBKTNV-1" vertex="1">
          <mxGeometry x="330.25" y="416" width="28.5" height="28.5" as="geometry" />
        </mxCell>
        <mxCell id="sO9mef_OLbLLb9RiKh2o-58" value="1" style="ellipse;shape=doubleEllipse;whiteSpace=wrap;html=1;aspect=fixed;fontSize=15;strokeColor=#FF8000;fillColor=#525252;fontColor=#FFFFFF;" parent="WIyWlLk6GJQsqaUBKTNV-1" vertex="1">
          <mxGeometry x="514.5" y="611" width="28.5" height="28.5" as="geometry" />
        </mxCell>
        <mxCell id="sO9mef_OLbLLb9RiKh2o-60" value="Trigger" style="text;html=1;resizable=0;autosize=1;align=center;verticalAlign=middle;points=[];fillColor=none;strokeColor=none;rounded=0;fontSize=15;fontColor=#969696;rotation=0;" parent="WIyWlLk6GJQsqaUBKTNV-1" vertex="1">
          <mxGeometry x="348.5" y="273" width="65" height="26" as="geometry" />
        </mxCell>
        <mxCell id="sO9mef_OLbLLb9RiKh2o-61" value="2" style="ellipse;shape=doubleEllipse;whiteSpace=wrap;html=1;aspect=fixed;fontSize=15;strokeColor=#FF8000;fillColor=#525252;fontColor=#FFFFFF;" parent="WIyWlLk6GJQsqaUBKTNV-1" vertex="1">
          <mxGeometry x="320" y="273" width="28.5" height="28.5" as="geometry" />
        </mxCell>
        <mxCell id="sO9mef_OLbLLb9RiKh2o-62" value="" style="html=1;shadow=0;dashed=0;align=center;verticalAlign=middle;shape=mxgraph.arrows2.arrow;dy=0.6;dx=40;direction=north;notch=0;fontSize=15;fontColor=#969696;strokeColor=#969696;" parent="WIyWlLk6GJQsqaUBKTNV-1" vertex="1">
          <mxGeometry x="670" y="221" width="19" height="52" as="geometry" />
        </mxCell>
        <mxCell id="sO9mef_OLbLLb9RiKh2o-64" value="SR1" style="shape=delay;whiteSpace=wrap;html=1;strokeColor=#969696;fontSize=15;" parent="WIyWlLk6GJQsqaUBKTNV-1" vertex="1">
          <mxGeometry x="640" y="171.5" width="80" height="40" as="geometry" />
        </mxCell>
        <mxCell id="sO9mef_OLbLLb9RiKh2o-67" value="SR2" style="shape=delay;whiteSpace=wrap;html=1;strokeColor=#969696;fontSize=15;" parent="WIyWlLk6GJQsqaUBKTNV-1" vertex="1">
          <mxGeometry x="637" y="119.5" width="85" height="40" as="geometry" />
        </mxCell>
        <mxCell id="sO9mef_OLbLLb9RiKh2o-69" style="edgeStyle=orthogonalEdgeStyle;rounded=1;jumpStyle=arc;orthogonalLoop=1;jettySize=auto;html=1;exitX=1;exitY=0.5;exitDx=0;exitDy=0;entryX=0.5;entryY=0;entryDx=0;entryDy=0;startSize=10;endSize=10;strokeColor=#FF9933;strokeWidth=3;fontSize=15;fontColor=#000000;" parent="WIyWlLk6GJQsqaUBKTNV-1" source="sO9mef_OLbLLb9RiKh2o-1" target="sO9mef_OLbLLb9RiKh2o-68" edge="1">
          <mxGeometry relative="1" as="geometry" />
        </mxCell>
        <mxCell id="sO9mef_OLbLLb9RiKh2o-70" value="Traslate" style="text;html=1;resizable=0;autosize=1;align=center;verticalAlign=middle;points=[];fillColor=none;strokeColor=none;rounded=0;fontSize=15;fontColor=#969696;rotation=0;" parent="WIyWlLk6GJQsqaUBKTNV-1" vertex="1">
          <mxGeometry x="605.5" y="56" width="78" height="26" as="geometry" />
        </mxCell>
        <mxCell id="sO9mef_OLbLLb9RiKh2o-71" value="3" style="ellipse;shape=doubleEllipse;whiteSpace=wrap;html=1;aspect=fixed;fontSize=15;strokeColor=#FF8000;fillColor=#525252;fontColor=#FFFFFF;" parent="WIyWlLk6GJQsqaUBKTNV-1" vertex="1">
          <mxGeometry x="583" y="56" width="28.5" height="28.5" as="geometry" />
        </mxCell>
        <mxCell id="sO9mef_OLbLLb9RiKh2o-73" value="Approve" style="text;html=1;resizable=0;autosize=1;align=center;verticalAlign=middle;points=[];fillColor=none;strokeColor=none;rounded=0;fontSize=15;fontColor=#969696;rotation=0;" parent="WIyWlLk6GJQsqaUBKTNV-1" vertex="1">
          <mxGeometry x="520" y="171.5" width="78" height="26" as="geometry" />
        </mxCell>
        <mxCell id="sO9mef_OLbLLb9RiKh2o-74" value="4" style="ellipse;shape=doubleEllipse;whiteSpace=wrap;html=1;aspect=fixed;fontSize=15;strokeColor=#FF8000;fillColor=#525252;fontColor=#FFFFFF;" parent="WIyWlLk6GJQsqaUBKTNV-1" vertex="1">
          <mxGeometry x="497.5" y="171.5" width="28.5" height="28.5" as="geometry" />
        </mxCell>
        <mxCell id="sO9mef_OLbLLb9RiKh2o-76" value="Handle" style="text;html=1;resizable=0;autosize=1;align=center;verticalAlign=middle;points=[];fillColor=none;strokeColor=none;rounded=0;fontSize=15;fontColor=#969696;rotation=90;" parent="WIyWlLk6GJQsqaUBKTNV-1" vertex="1">
          <mxGeometry x="312" y="685.5" width="65" height="26" as="geometry" />
        </mxCell>
        <mxCell id="sO9mef_OLbLLb9RiKh2o-77" value="5" style="ellipse;shape=doubleEllipse;whiteSpace=wrap;html=1;aspect=fixed;fontSize=15;strokeColor=#FF8000;fillColor=#525252;fontColor=#FFFFFF;" parent="WIyWlLk6GJQsqaUBKTNV-1" vertex="1">
          <mxGeometry x="329" y="639.5" width="28.5" height="28.5" as="geometry" />
        </mxCell>
        <mxCell id="sO9mef_OLbLLb9RiKh2o-79" style="edgeStyle=orthogonalEdgeStyle;rounded=1;jumpStyle=arc;orthogonalLoop=1;jettySize=auto;html=1;startSize=10;endSize=10;strokeColor=#FF9933;strokeWidth=3;fontSize=15;fontColor=#FFFFFF;entryX=0;entryY=0.5;entryDx=0;entryDy=0;" parent="WIyWlLk6GJQsqaUBKTNV-1" source="sO9mef_OLbLLb9RiKh2o-4" target="sO9mef_OLbLLb9RiKh2o-81" edge="1">
          <mxGeometry relative="1" as="geometry">
            <mxPoint x="182" y="886" as="targetPoint" />
          </mxGeometry>
        </mxCell>
        <mxCell id="sO9mef_OLbLLb9RiKh2o-80" value="" style="group" parent="WIyWlLk6GJQsqaUBKTNV-1" vertex="1" connectable="0">
          <mxGeometry x="278" y="871" width="271" height="130" as="geometry" />
        </mxCell>
        <mxCell id="sO9mef_OLbLLb9RiKh2o-81" value="" style="rounded=1;whiteSpace=wrap;html=1;fontSize=12;glass=0;strokeWidth=1;shadow=0;" parent="sO9mef_OLbLLb9RiKh2o-80" vertex="1">
          <mxGeometry width="271" height="130" as="geometry" />
        </mxCell>
        <mxCell id="sO9mef_OLbLLb9RiKh2o-82" value="Third Service" style="text;html=1;resizable=0;autosize=1;align=center;verticalAlign=middle;points=[];fillColor=none;strokeColor=none;rounded=0;fontSize=17;fontStyle=1" parent="sO9mef_OLbLLb9RiKh2o-80" vertex="1">
          <mxGeometry x="70.5" y="13" width="130" height="26" as="geometry" />
        </mxCell>
        <mxCell id="sO9mef_OLbLLb9RiKh2o-84" value="discovery" style="rounded=1;whiteSpace=wrap;html=1;fontSize=15;" parent="sO9mef_OLbLLb9RiKh2o-80" vertex="1">
          <mxGeometry x="8" y="65" width="122" height="50" as="geometry" />
        </mxCell>
        <mxCell id="sO9mef_OLbLLb9RiKh2o-85" value="iClone" style="rounded=1;whiteSpace=wrap;html=1;fontSize=15;" parent="sO9mef_OLbLLb9RiKh2o-80" vertex="1">
          <mxGeometry x="156" y="65" width="104" height="50" as="geometry" />
        </mxCell>
        <mxCell id="sO9mef_OLbLLb9RiKh2o-86" value="Call" style="text;html=1;resizable=0;autosize=1;align=center;verticalAlign=middle;points=[];fillColor=none;strokeColor=none;rounded=0;fontSize=15;fontColor=#969696;rotation=0;fontStyle=1" parent="WIyWlLk6GJQsqaUBKTNV-1" vertex="1">
          <mxGeometry x="202" y="897" width="52" height="26" as="geometry" />
        </mxCell>
        <mxCell id="sO9mef_OLbLLb9RiKh2o-87" value="6" style="ellipse;shape=doubleEllipse;whiteSpace=wrap;html=1;aspect=fixed;fontSize=15;strokeColor=#FF8000;fillColor=#525252;fontColor=#FFFFFF;fontStyle=1" parent="WIyWlLk6GJQsqaUBKTNV-1" vertex="1">
          <mxGeometry x="173.5" y="897" width="28.5" height="28.5" as="geometry" />
        </mxCell>
        <mxCell id="sO9mef_OLbLLb9RiKh2o-88" value="Call" style="text;html=1;resizable=0;autosize=1;align=center;verticalAlign=middle;points=[];fillColor=none;strokeColor=none;rounded=0;fontSize=15;fontColor=#969696;rotation=0;" parent="WIyWlLk6GJQsqaUBKTNV-1" vertex="1">
          <mxGeometry x="618" y="899.5" width="52" height="26" as="geometry" />
        </mxCell>
        <mxCell id="sO9mef_OLbLLb9RiKh2o-89" value="6" style="ellipse;shape=doubleEllipse;whiteSpace=wrap;html=1;aspect=fixed;fontSize=15;strokeColor=#FF8000;fillColor=#525252;fontColor=#FFFFFF;" parent="WIyWlLk6GJQsqaUBKTNV-1" vertex="1">
          <mxGeometry x="589.5" y="899.5" width="28.5" height="28.5" as="geometry" />
        </mxCell>
        <mxCell id="sO9mef_OLbLLb9RiKh2o-90" style="edgeStyle=orthogonalEdgeStyle;rounded=1;jumpStyle=arc;orthogonalLoop=1;jettySize=auto;html=1;entryX=0.75;entryY=1;entryDx=0;entryDy=0;startSize=10;endSize=10;strokeColor=#FF9933;strokeWidth=3;fontSize=15;fontColor=#FFFFFF;" parent="WIyWlLk6GJQsqaUBKTNV-1" source="sO9mef_OLbLLb9RiKh2o-81" target="sO9mef_OLbLLb9RiKh2o-7" edge="1">
          <mxGeometry relative="1" as="geometry" />
        </mxCell>
        <mxCell id="zvxovWymFCu1q2faMxAx-1" style="edgeStyle=orthogonalEdgeStyle;rounded=0;orthogonalLoop=1;jettySize=auto;html=1;exitX=1;exitY=0.5;exitDx=0;exitDy=0;startArrow=classic;startFill=1;strokeWidth=3;strokeColor=#FF9933;" edge="1" parent="WIyWlLk6GJQsqaUBKTNV-1" source="sO9mef_OLbLLb9RiKh2o-0">
          <mxGeometry relative="1" as="geometry">
            <mxPoint x="442" y="507" as="targetPoint" />
            <Array as="points">
              <mxPoint x="403" y="117" />
              <mxPoint x="403" y="247" />
              <mxPoint x="442" y="247" />
            </Array>
          </mxGeometry>
        </mxCell>
        <mxCell id="zvxovWymFCu1q2faMxAx-2" value="Clear" style="text;html=1;resizable=0;autosize=1;align=center;verticalAlign=middle;points=[];fillColor=none;strokeColor=none;rounded=0;fontSize=15;fontColor=#969696;rotation=0;" vertex="1" parent="WIyWlLk6GJQsqaUBKTNV-1">
          <mxGeometry x="470.5" y="267" width="65" height="39" as="geometry" />
        </mxCell>
        <mxCell id="zvxovWymFCu1q2faMxAx-3" value="7" style="ellipse;shape=doubleEllipse;whiteSpace=wrap;html=1;aspect=fixed;fontSize=15;strokeColor=#FF8000;fillColor=#525252;fontColor=#FFFFFF;" vertex="1" parent="WIyWlLk6GJQsqaUBKTNV-1">
          <mxGeometry x="442" y="273" width="28.5" height="28.5" as="geometry" />
        </mxCell>
      </root>
    </mxGraphModel>
  </diagram>
</mxfile>
